<svg id="visual" viewBox="0 0 900 600" width="900" height="600" xmlns="http://www.w3.org/2000/svg" xmlns:xlink="http://www.w3.org/1999/xlink" version="1.1"><rect x="0" y="0" width="900" height="600" fill="#003049"></rect><defs><linearGradient id="grad1_0" x1="33.3%" y1="0%" x2="100%" y2="100%"><stop offset="20%" stop-color="#003049" stop-opacity="1"></stop><stop offset="80%" stop-color="#003049" stop-opacity="1"></stop></linearGradient></defs><defs><linearGradient id="grad2_0" x1="0%" y1="0%" x2="66.7%" y2="100%"><stop offset="20%" stop-color="#003049" stop-opacity="1"></stop><stop offset="80%" stop-color="#003049" stop-opacity="1"></stop></linearGradient></defs><g transform="translate(900, 0)"><path d="M0 297.5C-29.1 267 -58.1 236.5 -92.6 223.6C-127.1 210.6 -167 215.2 -200.1 200.1C-233.3 185.1 -259.7 150.4 -274.8 113.8C-289.9 77.2 -293.7 38.6 -297.5 0L0 0Z" fill="#eae2b7"></path></g><g transform="translate(0, 600)"><path d="M0 -297.5C45.3 -299.5 90.6 -301.6 113.8 -274.8C137.1 -248 138.4 -192.4 163.3 -163.3C188.3 -134.3 237 -131.9 263.3 -109.1C289.6 -86.3 293.5 -43.1 297.5 0L0 0Z" fill="#eae2b7"></path></g></svg>